<svg width="35" height="25" viewBox="0 0 35 25" fill="none" xmlns="http://www.w3.org/2000/svg">
<path d="M2.75 10.9705C2.75 5.86182 6.89137 1.72046 12 1.72046H25C30.1086 1.72046 34.25 5.86182 34.25 10.9705C34.25 16.0791 30.1086 20.2205 25 20.2205H12C6.89137 20.2205 2.75 16.0791 2.75 10.9705Z" fill="#E8E8E8" stroke="#E8E8E8" stroke-width="1.5"/>
<g filter="url(#filter0_d_0_591)">
<path fill-rule="evenodd" clip-rule="evenodd" d="M12.0294 20.0028C17.0325 20.0028 21.0882 15.9589 21.0882 10.9706C21.0882 5.98219 17.0325 1.93831 12.0294 1.93831C7.02635 1.93831 2.97058 5.98219 2.97058 10.9706C2.97058 15.9589 7.02635 20.0028 12.0294 20.0028Z" fill="white"/>
<path d="M20.8382 10.9706C20.8382 15.8202 16.8951 19.7528 12.0294 19.7528C7.16373 19.7528 3.22058 15.8202 3.22058 10.9706C3.22058 6.12095 7.16373 2.18831 12.0294 2.18831C16.8951 2.18831 20.8382 6.12095 20.8382 10.9706Z" stroke="#E5E5E5" stroke-width="0.5"/>
</g>
<defs>
<filter id="filter0_d_0_591" x="0.970581" y="1.93831" width="22.1176" height="22.0645" filterUnits="userSpaceOnUse" color-interpolation-filters="sRGB">
<feFlood flood-opacity="0" result="BackgroundImageFix"/>
<feColorMatrix in="SourceAlpha" type="matrix" values="0 0 0 0 0 0 0 0 0 0 0 0 0 0 0 0 0 0 127 0" result="hardAlpha"/>
<feOffset dy="2"/>
<feGaussianBlur stdDeviation="1"/>
<feColorMatrix type="matrix" values="0 0 0 0 0 0 0 0 0 0 0 0 0 0 0 0 0 0 0.4 0"/>
<feBlend mode="normal" in2="BackgroundImageFix" result="effect1_dropShadow_0_591"/>
<feBlend mode="normal" in="SourceGraphic" in2="effect1_dropShadow_0_591" result="shape"/>
</filter>
</defs>
</svg>
