<svg width="35" height="24" viewBox="0 0 35 24" fill="none" xmlns="http://www.w3.org/2000/svg">
<path d="M32.25 10C32.25 4.89137 28.1086 0.75 23 0.75H10C4.89137 0.75 0.75 4.89137 0.75 10C0.75 15.1086 4.89137 19.25 10 19.25H23C28.1086 19.25 32.25 15.1086 32.25 10Z" fill="white" stroke="#E8E8E8" stroke-width="1.5"/>
<g filter="url(#filter0_d_0_583)">
<path fill-rule="evenodd" clip-rule="evenodd" d="M22.9705 19.0322C17.9675 19.0322 13.9117 14.9883 13.9117 9.99989C13.9117 5.01152 17.9675 0.967636 22.9705 0.967636C27.9736 0.967636 32.0294 5.01152 32.0294 9.99989C32.0294 14.9883 27.9736 19.0322 22.9705 19.0322Z" fill="url(#paint0_linear_0_583)"/>
<path d="M14.1617 9.99989C14.1617 14.8495 18.1049 18.7822 22.9705 18.7822C27.8362 18.7822 31.7794 14.8495 31.7794 9.99989C31.7794 5.15028 27.8362 1.21764 22.9705 1.21764C18.1049 1.21764 14.1617 5.15028 14.1617 9.99989Z" stroke="#E5E5E5" stroke-width="0.5"/>
</g>
<defs>
<filter id="filter0_d_0_583" x="11.9117" y="0.967636" width="22.1176" height="22.0645" filterUnits="userSpaceOnUse" color-interpolation-filters="sRGB">
<feFlood flood-opacity="0" result="BackgroundImageFix"/>
<feColorMatrix in="SourceAlpha" type="matrix" values="0 0 0 0 0 0 0 0 0 0 0 0 0 0 0 0 0 0 127 0" result="hardAlpha"/>
<feOffset dy="2"/>
<feGaussianBlur stdDeviation="1"/>
<feColorMatrix type="matrix" values="0 0 0 0 0 0 0 0 0 0 0 0 0 0 0 0 0 0 0.4 0"/>
<feBlend mode="normal" in2="BackgroundImageFix" result="effect1_dropShadow_0_583"/>
<feBlend mode="normal" in="SourceGraphic" in2="effect1_dropShadow_0_583" result="shape"/>
</filter>
<linearGradient id="paint0_linear_0_583" x1="22.9547" y1="19.0322" x2="22.9547" y2="0.967636" gradientUnits="userSpaceOnUse">
<stop stop-color="#20B6F1"/>
<stop offset="1" stop-color="#4FC61B"/>
</linearGradient>
</defs>
</svg>
